<svg width="156" height="157" xmlns="http://www.w3.org/2000/svg" xmlns:xlink="http://www.w3.org/1999/xlink" xml:space="preserve" overflow="hidden"><g transform="translate(-886 -51)"><path d="M39 58.5 78 39 117 58.5 117 97.5 78 117 39 97.5Z" stroke="#000000" stroke-width="2.4375" fill="none" transform="matrix(1 0 0 1.00641 886 51)"/><path d="M82.875 78C82.875 80.6924 80.6924 82.875 78 82.875 75.3076 82.875 73.125 80.6924 73.125 78 73.125 75.3076 75.3076 73.125 78 73.125 80.6924 73.125 82.875 75.3076 82.875 78Z" stroke="#000000" stroke-width="2.4375" fill="none" transform="matrix(1 0 0 1.00641 886 51)"/><path d="M58.5 78 97.5 78" stroke="#000000" stroke-width="2.4375" fill="none" transform="matrix(1 0 0 1.00641 886 51)"/></g></svg>