<!-- Source: https://commons.wikimedia.org/wiki/File:Google_Gemini_icon_2025.svg -->
<!-- Simplified to monochrome for CSS styling -->
<svg xmlns="http://www.w3.org/2000/svg" viewBox="0 0 65 65">
  <path d="M32.447 0c.68 0 1.273.465 1.439 1.125a38.904 38.904 0 001.999 5.905c2.152 5 5.105 9.376 8.854 13.125 3.751 3.75 8.126 6.703 13.125 8.855a38.98 38.98 0 005.906 1.999c.66.166 1.124.758 1.124 1.438 0 .68-.464 1.273-1.125 1.439a38.902 38.902 0 00-5.905 1.999c-5 2.152-9.375 5.105-13.125 8.854-3.749 3.751-6.702 8.126-8.854 13.125a38.903 38.903 0 00-1.999 5.906c-.166.66-.759 1.124-1.439 1.124-.68 0-1.272-.464-1.438-1.125a38.96 38.96 0 00-1.999-5.905c-2.152-4.999-5.105-9.374-8.855-13.125-3.749-3.749-8.125-6.702-13.125-8.854a38.904 38.904 0 00-5.905-1.999C.464 33.72 0 33.127 0 32.447c0-.68.465-1.272 1.125-1.438a38.98 38.98 0 005.905-1.999c5-2.152 9.376-5.105 13.125-8.855 3.75-3.749 6.703-8.125 8.855-13.125a38.96 38.96 0 001.999-5.905C31.175.465 31.767 0 32.447 0z"/>
</svg>
